<svg xmlns="http://www.w3.org/2000/svg" width="192" height="208" viewBox="0 0 192 208" role="img" aria-label="番茄芽团">

  <defs>
    <radialGradient id="body" cx="34%" cy="28%" r="72%">
      <stop offset="0" stop-color="#ff9287"/>
      <stop offset="0.48" stop-color="#f2574f"/>
      <stop offset="1" stop-color="#cf3038"/>
    </radialGradient>
    <radialGradient id="bodyBack" cx="42%" cy="24%" r="74%">
      <stop offset="0" stop-color="#ff8278"/>
      <stop offset="0.56" stop-color="#ea4847"/>
      <stop offset="1" stop-color="#bc2932"/>
    </radialGradient>
    <linearGradient id="leafA" x1="0" y1="0" x2="1" y2="1">
      <stop offset="0" stop-color="#92e58b"/>
      <stop offset="1" stop-color="#3aae61"/>
    </linearGradient>
    <linearGradient id="leafB" x1="1" y1="0" x2="0" y2="1">
      <stop offset="0" stop-color="#86df83"/>
      <stop offset="1" stop-color="#2f9c58"/>
    </linearGradient>
    <filter id="softDepth" x="-30%" y="-30%" width="160%" height="160%">
      <feGaussianBlur in="SourceAlpha" stdDeviation="1.15"/>
      <feOffset dx="0" dy="1.4" result="offset"/>
      <feComposite in="SourceGraphic" in2="offset" operator="over"/>
    </filter>
    <style>
      .blink {
        animation: blink 5.2s ease-in-out infinite;
        transform-box: fill-box;
        transform-origin: center;
      }

      .blink.r {
        animation-delay: 90ms;
      }

      @keyframes blink {
        0%, 42%, 45%, 100% { transform: scaleY(1); }
        43%, 44% { transform: scaleY(.12); }
      }
    </style>
  </defs>

    <g transform="translate(0 0) scale(1)">

      <g transform="translate(0 0) rotate(0 96 112)" filter="url(#softDepth)">

    <g transform="rotate(0 96 45)">
      <path d="M91 47c-22-24-49-22-64 1 26 4 46 4 64-1Z" fill="url(#leafA)"/>
      <path d="M101 47c14-29 43-35 65-15-18 18-39 25-65 15Z" fill="url(#leafB)"/>
      <path d="M96 46c-8-29 8-43 28-46 1 27-8 42-28 46Z" fill="#61c978"/>
      <path d="M84 52c-7-13 0-24 14-30 8 14 3 26-14 30Z" fill="#3ba060"/>
      <path d="M126 26c9 3 17 4 27 0" fill="none" stroke="#baf0b4" stroke-width="4" stroke-linecap="round" opacity=".42"/>
    </g>

      <path d="M49 126c-16 6-20 19-10 27 10 7 22-1 26-17Z" fill="#d9363f"/>
      <path d="M143 126c16 6 20 19 10 27-10 7-22-1-26-17Z" fill="#d9363f"/>

    <ellipse cx="66" cy="177" rx="18" ry="13" fill="#bd2c34"/>
    <ellipse cx="126" cy="177" rx="18" ry="13" fill="#bd2c34"/>
        <ellipse cx="96" cy="112" rx="63" ry="65" fill="url(#body)"/>
        <ellipse cx="75" cy="85" rx="35" ry="27" fill="#fff" opacity=".18"/>
        <path d="M55 104c0-26 18-48 44-55" fill="none" stroke="#ffc4bd" stroke-width="4" stroke-linecap="round" opacity=".42"/>

      <path d="M67 102c7-6 14-6 21 0" fill="none" stroke="#251b1b" stroke-width="4.6" stroke-linecap="round"/>
      <path d="M109 102c7-6 14-6 21 0" fill="none" stroke="#251b1b" stroke-width="4.6" stroke-linecap="round"/>
      <ellipse cx="57" cy="120" rx="10" ry="5.5" fill="#ff8f88" opacity=".4"/>
      <ellipse cx="136" cy="120" rx="10" ry="5.5" fill="#ff8f88" opacity=".4"/>
      <path d="M80 134c10-7 22-7 32 0" fill="none" stroke="#361f1f" stroke-width="5" stroke-linecap="round"/>
      <path d="M128 107c5 8 5 15 0 21" fill="none" stroke="#8bd7ff" stroke-width="5" stroke-linecap="round" opacity=".92"/>
      </g>
    </g>
</svg>
