<svg xmlns="http://www.w3.org/2000/svg" width="192" height="208" viewBox="0 0 192 208" role="img" aria-label="番茄芽团">

  <defs>
    <radialGradient id="body" cx="34%" cy="28%" r="72%">
      <stop offset="0" stop-color="#ff9287"/>
      <stop offset="0.48" stop-color="#f2574f"/>
      <stop offset="1" stop-color="#cf3038"/>
    </radialGradient>
    <radialGradient id="bodyBack" cx="42%" cy="24%" r="74%">
      <stop offset="0" stop-color="#ff8278"/>
      <stop offset="0.56" stop-color="#ea4847"/>
      <stop offset="1" stop-color="#bc2932"/>
    </radialGradient>
    <linearGradient id="leafA" x1="0" y1="0" x2="1" y2="1">
      <stop offset="0" stop-color="#92e58b"/>
      <stop offset="1" stop-color="#3aae61"/>
    </linearGradient>
    <linearGradient id="leafB" x1="1" y1="0" x2="0" y2="1">
      <stop offset="0" stop-color="#86df83"/>
      <stop offset="1" stop-color="#2f9c58"/>
    </linearGradient>
    <filter id="softDepth" x="-30%" y="-30%" width="160%" height="160%">
      <feGaussianBlur in="SourceAlpha" stdDeviation="1.15"/>
      <feOffset dx="0" dy="1.4" result="offset"/>
      <feComposite in="SourceGraphic" in2="offset" operator="over"/>
    </filter>
    <style>
      .blink {
        animation: blink 5.2s ease-in-out infinite;
        transform-box: fill-box;
        transform-origin: center;
      }

      .blink.r {
        animation-delay: 90ms;
      }

      @keyframes blink {
        0%, 42%, 45%, 100% { transform: scaleY(1); }
        43%, 44% { transform: scaleY(.12); }
      }
    </style>
  </defs>

    <g transform="translate(0 0) scale(1)">

      <g transform="translate(0 -8) rotate(0 96 112)" filter="url(#softDepth)">

    <g transform="rotate(-3 96 45)">
      <path d="M91 47c-22-24-49-22-64 1 26 4 46 4 64-1Z" fill="url(#leafA)"/>
      <path d="M101 47c14-29 43-35 65-15-18 18-39 25-65 15Z" fill="url(#leafB)"/>
      <path d="M96 46c-8-29 8-43 28-46 1 27-8 42-28 46Z" fill="#61c978"/>
      <path d="M84 52c-7-13 0-24 14-30 8 14 3 26-14 30Z" fill="#3ba060"/>
      <path d="M126 26c9 3 17 4 27 0" fill="none" stroke="#baf0b4" stroke-width="4" stroke-linecap="round" opacity=".42"/>
    </g>

    <path d="M48 116c-18 6-24 20-15 29 9 9 24 2 30-16Z" fill="#d9363f"/>
    <path d="M144 116c18 6 24 20 15 29-9 9-24 2-30-16Z" fill="#d9363f"/>

    <ellipse cx="66" cy="169" rx="18" ry="13" fill="#bd2c34"/>
    <ellipse cx="126" cy="169" rx="18" ry="13" fill="#bd2c34"/>
        <ellipse cx="96" cy="112" rx="63" ry="65" fill="url(#body)"/>
        <ellipse cx="75" cy="85" rx="35" ry="27" fill="#fff" opacity=".18"/>
        <path d="M55 104c0-26 18-48 44-55" fill="none" stroke="#ffc4bd" stroke-width="4" stroke-linecap="round" opacity=".42"/>

    <g class="blink">
      <ellipse cx="72" cy="101" rx="7.2" ry="9.4" fill="#211919"/>
      <circle cx="69.5" cy="97.5" r="2.5" fill="#fff" opacity=".94"/>
      <circle cx="74" cy="105" r="1.2" fill="#fff" opacity=".45"/>
    </g>
    <g class="blink r">
      <ellipse cx="121" cy="101" rx="7.2" ry="9.4" fill="#211919"/>
      <circle cx="118.5" cy="97.5" r="2.5" fill="#fff" opacity=".94"/>
      <circle cx="123" cy="105" r="1.2" fill="#fff" opacity=".45"/>
    </g>
    <ellipse cx="58" cy="121" rx="11" ry="6" fill="#ff8f88" opacity=".48"/>
    <ellipse cx="136" cy="121" rx="11" ry="6" fill="#ff8f88" opacity=".48"/>

        <path d="M79 119c8 19 31 23 43 1 1-2-1-5-4-5H83c-3 0-5 2-4 4Z" fill="#4c1517"/>
        <ellipse cx="104" cy="132" rx="13" ry="8" fill="#ff7469" opacity=".95"/>
      </g>
    </g>
</svg>
